{
    "asset" : {
        "generator" : "Khronos glTF Blender I/O v1.5.17",
        "version" : "2.0"
    },
    "scene" : 0,
    "scenes" : [
        {
            "name" : "Scene",
            "nodes" : [
                0
            ]
        }
    ],
    "nodes" : [
        {
            "mesh" : 0,
            "name" : "Cube",
            "scale" : [
                1,
                0.75,
                1
            ]
        }
    ],
    "materials" : [
        {
            "doubleSided" : true,
            "name" : "Material.002",
            "pbrMetallicRoughness" : {
                "baseColorFactor" : [
                    0.045198362320661545,
                    0.06038467586040497,
                    0.038884248584508896,
                    1
                ],
                "metallicFactor" : 0,
                "roughnessFactor" : 0.5
            }
        },
        {
            "alphaMode" : "BLEND",
            "doubleSided" : true,
            "name" : "Material.001",
            "pbrMetallicRoughness" : {
                "baseColorTexture" : {
                    "index" : 0
                },
                "metallicFactor" : 0,
                "roughnessFactor" : 0.5
            }
        }
    ],
    "meshes" : [
        {
            "name" : "Cube",
            "primitives" : [
                {
                    "attributes" : {
                        "POSITION" : 0,
                        "NORMAL" : 1,
                        "TEXCOORD_0" : 2
                    },
                    "indices" : 3,
                    "material" : 0
                },
                {
                    "attributes" : {
                        "POSITION" : 4,
                        "NORMAL" : 5,
                        "TEXCOORD_0" : 6
                    },
                    "indices" : 7,
                    "material" : 1
                }
            ]
        }
    ],
    "textures" : [
        {
            "sampler" : 0,
            "source" : 0
        }
    ],
    "images" : [
        {
            "bufferView" : 8,
            "mimeType" : "image/png",
            "name" : "wall"
        }
    ],
    "accessors" : [
        {
            "bufferView" : 0,
            "componentType" : 5126,
            "count" : 322,
            "max" : [
                0.03474317118525505,
                0.004000000189989805,
                0.06750000268220901
            ],
            "min" : [
                -0.03479953110218048,
                -0.004544159397482872,
                -0.06750000268220901
            ],
            "type" : "VEC3"
        },
        {
            "bufferView" : 1,
            "componentType" : 5126,
            "count" : 322,
            "type" : "VEC3"
        },
        {
            "bufferView" : 2,
            "componentType" : 5126,
            "count" : 322,
            "type" : "VEC2"
        },
        {
            "bufferView" : 3,
            "componentType" : 5123,
            "count" : 576,
            "type" : "SCALAR"
        },
        {
            "bufferView" : 4,
            "componentType" : 5126,
            "count" : 20,
            "max" : [
                0.03291014954447746,
                -0.004000000189989805,
                0.06524039059877396
            ],
            "min" : [
                -0.03291014954447746,
                -0.004000000189989805,
                -0.06524039059877396
            ],
            "type" : "VEC3"
        },
        {
            "bufferView" : 5,
            "componentType" : 5126,
            "count" : 20,
            "type" : "VEC3"
        },
        {
            "bufferView" : 6,
            "componentType" : 5126,
            "count" : 20,
            "type" : "VEC2"
        },
        {
            "bufferView" : 7,
            "componentType" : 5123,
            "count" : 54,
            "type" : "SCALAR"
        }
    ],
    "bufferViews" : [
        {
            "buffer" : 0,
            "byteLength" : 3864,
            "byteOffset" : 0
        },
        {
            "buffer" : 0,
            "byteLength" : 3864,
            "byteOffset" : 3864
        },
        {
            "buffer" : 0,
            "byteLength" : 2576,
            "byteOffset" : 7728
        },
        {
            "buffer" : 0,
            "byteLength" : 1152,
            "byteOffset" : 10304
        },
        {
            "buffer" : 0,
            "byteLength" : 240,
            "byteOffset" : 11456
        },
        {
            "buffer" : 0,
            "byteLength" : 240,
            "byteOffset" : 11696
        },
        {
            "buffer" : 0,
            "byteLength" : 160,
            "byteOffset" : 11936
        },
        {
            "buffer" : 0,
            "byteLength" : 108,
            "byteOffset" : 12096
        },
        {
            "buffer" : 0,
            "byteLength" : 34512,
            "byteOffset" : 12204
        }
    ],
    "samplers" : [
        {
            "magFilter" : 9729,
            "minFilter" : 9987,
            "wrapS" : 33071,
            "wrapT" : 33071
        }
    ],
    "buffers" : [
        {
            "byteLength" : 46716,
            "uri" : "data:application/octet-stream;base64,"
        }
    ]
}
