{
    "asset" : {
        "generator" : "Khronos glTF Blender I/O v1.5.17",
        "version" : "2.0"
    },
    "scene" : 0,
    "scenes" : [
        {
            "name" : "Scene",
            "nodes" : [
                0,
                1,
                2,
                3,
                4,
                5
            ]
        }
    ],
    "nodes" : [
        {
            "mesh" : 0,
            "name" : "Cube"
        },
        {
            "mesh" : 1,
            "name" : "BezierCircle",
            "rotation" : [
                0.6283625364303589,
                0.03374744951725006,
                -0.32428479194641113,
                0.7063010334968567
            ],
            "scale" : [
                0.8517845869064331,
                0.8517845869064331,
                0.8517845869064331
            ],
            "translation" : [
                -0.273818701505661,
                -0.2394198328256607,
                0.15829870104789734
            ]
        },
        {
            "mesh" : 2,
            "name" : "BezierCircle.001",
            "rotation" : [
                0.595020055770874,
                -0.5948008894920349,
                0.3820355534553528,
                0.38237661123275757
            ],
            "scale" : [
                0.8517845869064331,
                0.8517845869064331,
                0.8517845869064331
            ],
            "translation" : [
                -0.00018134713172912598,
                -0.2394198179244995,
                -0.31628331542015076
            ]
        },
        {
            "mesh" : 3,
            "name" : "BezierCircle.002",
            "rotation" : [
                -0.03334254026412964,
                -0.6285483241081238,
                0.7063202857971191,
                -0.3239244520664215
            ],
            "scale" : [
                0.8517845869064331,
                0.8517845869064331,
                0.8517845869064331
            ],
            "translation" : [
                0.27400004863739014,
                -0.23941980302333832,
                0.1579846441745758
            ]
        },
        {
            "name" : "Area",
            "rotation" : [
                0,
                0,
                0.3936122953891754,
                0.9192765355110168
            ],
            "translation" : [
                -7.4847612380981445,
                8.762754440307617,
                0.1257064938545227
            ]
        },
        {
            "name" : "Area.001",
            "rotation" : [
                0.33799001574516296,
                -0.05850406363606453,
                -0.23000426590442657,
                0.910735011100769
            ],
            "translation" : [
                4.127989768981934,
                10.723773002624512,
                7.490338325500488
            ]
        }
    ],
    "materials" : [
        {
            "doubleSided" : true,
            "name" : "Red",
            "pbrMetallicRoughness" : {
                "baseColorFactor" : [
                    0.8000000715255737,
                    0.027536863461136818,
                    0.03087746724486351,
                    1
                ],
                "metallicFactor" : 0
            }
        },
        {
            "doubleSided" : true,
            "name" : "White",
            "pbrMetallicRoughness" : {
                "baseColorFactor" : [
                    0.800000011920929,
                    0.800000011920929,
                    0.800000011920929,
                    1
                ],
                "metallicFactor" : 0,
                "roughnessFactor" : 0.5
            }
        },
        {
            "doubleSided" : true,
            "name" : "purple2",
            "pbrMetallicRoughness" : {
                "baseColorFactor" : [
                    0.018215171992778778,
                    0.0021240173373371363,
                    0.03521791473031044,
                    1
                ],
                "metallicFactor" : 0
            }
        },
        {
            "doubleSided" : true,
            "name" : "bLUE",
            "pbrMetallicRoughness" : {
                "baseColorFactor" : [
                    0.17456486821174622,
                    0.3207586109638214,
                    0.5070685744285583,
                    1
                ],
                "metallicFactor" : 0,
                "roughnessFactor" : 0.5
            }
        }
    ],
    "meshes" : [
        {
            "name" : "Cube",
            "primitives" : [
                {
                    "attributes" : {
                        "POSITION" : 0,
                        "NORMAL" : 1,
                        "TEXCOORD_0" : 2
                    },
                    "indices" : 3,
                    "material" : 0
                },
                {
                    "attributes" : {
                        "POSITION" : 4,
                        "NORMAL" : 5,
                        "TEXCOORD_0" : 6
                    },
                    "indices" : 7,
                    "material" : 1
                },
                {
                    "attributes" : {
                        "POSITION" : 8,
                        "NORMAL" : 9,
                        "TEXCOORD_0" : 10
                    },
                    "indices" : 11,
                    "material" : 2
                },
                {
                    "attributes" : {
                        "POSITION" : 12,
                        "NORMAL" : 13,
                        "TEXCOORD_0" : 14
                    },
                    "indices" : 15,
                    "material" : 3
                }
            ]
        },
        {
            "name" : "BezierCircle",
            "primitives" : [
                {
                    "attributes" : {
                        "POSITION" : 16,
                        "NORMAL" : 17,
                        "TEXCOORD_0" : 18
                    },
                    "indices" : 19,
                    "material" : 2
                }
            ]
        },
        {
            "name" : "BezierCircle.001",
            "primitives" : [
                {
                    "attributes" : {
                        "POSITION" : 20,
                        "NORMAL" : 21,
                        "TEXCOORD_0" : 22
                    },
                    "indices" : 19,
                    "material" : 2
                }
            ]
        },
        {
            "name" : "BezierCircle.002",
            "primitives" : [
                {
                    "attributes" : {
                        "POSITION" : 23,
                        "NORMAL" : 24,
                        "TEXCOORD_0" : 25
                    },
                    "indices" : 19,
                    "material" : 2
                }
            ]
        }
    ],
    "accessors" : [
        {
            "bufferView" : 0,
            "componentType" : 5126,
            "count" : 439,
            "max" : [
                1.0395864248275757,
                3.32049298286438,
                1.0395864248275757
            ],
            "min" : [
                -1.0395864248275757,
                -1.2189491987228394,
                -1.0395864248275757
            ],
            "type" : "VEC3"
        },
        {
            "bufferView" : 1,
            "componentType" : 5126,
            "count" : 439,
            "type" : "VEC3"
        },
        {
            "bufferView" : 2,
            "componentType" : 5126,
            "count" : 439,
            "type" : "VEC2"
        },
        {
            "bufferView" : 3,
            "componentType" : 5123,
            "count" : 2016,
            "type" : "SCALAR"
        },
        {
            "bufferView" : 4,
            "componentType" : 5126,
            "count" : 109,
            "max" : [
                1.0533137321472168,
                2.325808525085449,
                1.0533137321472168
            ],
            "min" : [
                -1.0533137321472168,
                0.29527854919433594,
                -1.0533137321472168
            ],
            "type" : "VEC3"
        },
        {
            "bufferView" : 5,
            "componentType" : 5126,
            "count" : 109,
            "type" : "VEC3"
        },
        {
            "bufferView" : 6,
            "componentType" : 5126,
            "count" : 109,
            "type" : "VEC2"
        },
        {
            "bufferView" : 7,
            "componentType" : 5123,
            "count" : 384,
            "type" : "SCALAR"
        },
        {
            "bufferView" : 8,
            "componentType" : 5126,
            "count" : 571,
            "max" : [
                0.43080753087997437,
                2.1686785221099854,
                1.1591451168060303
            ],
            "min" : [
                -0.43080753087997437,
                1.172687292098999,
                0.16317284107208252
            ],
            "type" : "VEC3"
        },
        {
            "bufferView" : 9,
            "componentType" : 5126,
            "count" : 571,
            "type" : "VEC3"
        },
        {
            "bufferView" : 10,
            "componentType" : 5126,
            "count" : 571,
            "type" : "VEC2"
        },
        {
            "bufferView" : 11,
            "componentType" : 5123,
            "count" : 2202,
            "type" : "SCALAR"
        },
        {
            "bufferView" : 12,
            "componentType" : 5126,
            "count" : 32,
            "max" : [
                0.32977285981178284,
                2.0659396648406982,
                1.077693223953247
            ],
            "min" : [
                -0.32977285981178284,
                1.4167083501815796,
                0.9615066051483154
            ],
            "type" : "VEC3"
        },
        {
            "bufferView" : 13,
            "componentType" : 5126,
            "count" : 32,
            "type" : "VEC3"
        },
        {
            "bufferView" : 14,
            "componentType" : 5126,
            "count" : 32,
            "type" : "VEC2"
        },
        {
            "bufferView" : 15,
            "componentType" : 5123,
            "count" : 90,
            "type" : "SCALAR"
        },
        {
            "bufferView" : 16,
            "componentType" : 5126,
            "count" : 1907,
            "max" : [
                0.038767747581005096,
                0.125,
                1.8843021392822266
            ],
            "min" : [
                -1.3630945682525635,
                -0.125,
                -0.28040841221809387
            ],
            "type" : "VEC3"
        },
        {
            "bufferView" : 17,
            "componentType" : 5126,
            "count" : 1907,
            "type" : "VEC3"
        },
        {
            "bufferView" : 18,
            "componentType" : 5126,
            "count" : 1907,
            "type" : "VEC2"
        },
        {
            "bufferView" : 19,
            "componentType" : 5123,
            "count" : 9204,
            "type" : "SCALAR"
        },
        {
            "bufferView" : 20,
            "componentType" : 5126,
            "count" : 1907,
            "max" : [
                0.038767747581005096,
                0.125,
                1.8843021392822266
            ],
            "min" : [
                -1.3630945682525635,
                -0.125,
                -0.28040841221809387
            ],
            "type" : "VEC3"
        },
        {
            "bufferView" : 21,
            "componentType" : 5126,
            "count" : 1907,
            "type" : "VEC3"
        },
        {
            "bufferView" : 22,
            "componentType" : 5126,
            "count" : 1907,
            "type" : "VEC2"
        },
        {
            "bufferView" : 23,
            "componentType" : 5126,
            "count" : 1907,
            "max" : [
                0.038767747581005096,
                0.125,
                1.8843021392822266
            ],
            "min" : [
                -1.3630945682525635,
                -0.125,
                -0.28040841221809387
            ],
            "type" : "VEC3"
        },
        {
            "bufferView" : 24,
            "componentType" : 5126,
            "count" : 1907,
            "type" : "VEC3"
        },
        {
            "bufferView" : 25,
            "componentType" : 5126,
            "count" : 1907,
            "type" : "VEC2"
        }
    ],
    "bufferViews" : [
        {
            "buffer" : 0,
            "byteLength" : 5268,
            "byteOffset" : 0
        },
        {
            "buffer" : 0,
            "byteLength" : 5268,
            "byteOffset" : 5268
        },
        {
            "buffer" : 0,
            "byteLength" : 3512,
            "byteOffset" : 10536
        },
        {
            "buffer" : 0,
            "byteLength" : 4032,
            "byteOffset" : 14048
        },
        {
            "buffer" : 0,
            "byteLength" : 1308,
            "byteOffset" : 18080
        },
        {
            "buffer" : 0,
            "byteLength" : 1308,
            "byteOffset" : 19388
        },
        {
            "buffer" : 0,
            "byteLength" : 872,
            "byteOffset" : 20696
        },
        {
            "buffer" : 0,
            "byteLength" : 768,
            "byteOffset" : 21568
        },
        {
            "buffer" : 0,
            "byteLength" : 6852,
            "byteOffset" : 22336
        },
        {
            "buffer" : 0,
            "byteLength" : 6852,
            "byteOffset" : 29188
        },
        {
            "buffer" : 0,
            "byteLength" : 4568,
            "byteOffset" : 36040
        },
        {
            "buffer" : 0,
            "byteLength" : 4404,
            "byteOffset" : 40608
        },
        {
            "buffer" : 0,
            "byteLength" : 384,
            "byteOffset" : 45012
        },
        {
            "buffer" : 0,
            "byteLength" : 384,
            "byteOffset" : 45396
        },
        {
            "buffer" : 0,
            "byteLength" : 256,
            "byteOffset" : 45780
        },
        {
            "buffer" : 0,
            "byteLength" : 180,
            "byteOffset" : 46036
        },
        {
            "buffer" : 0,
            "byteLength" : 22884,
            "byteOffset" : 46216
        },
        {
            "buffer" : 0,
            "byteLength" : 22884,
            "byteOffset" : 69100
        },
        {
            "buffer" : 0,
            "byteLength" : 15256,
            "byteOffset" : 91984
        },
        {
            "buffer" : 0,
            "byteLength" : 18408,
            "byteOffset" : 107240
        },
        {
            "buffer" : 0,
            "byteLength" : 22884,
            "byteOffset" : 125648
        },
        {
            "buffer" : 0,
            "byteLength" : 22884,
            "byteOffset" : 148532
        },
        {
            "buffer" : 0,
            "byteLength" : 15256,
            "byteOffset" : 171416
        },
        {
            "buffer" : 0,
            "byteLength" : 22884,
            "byteOffset" : 186672
        },
        {
            "buffer" : 0,
            "byteLength" : 22884,
            "byteOffset" : 209556
        },
        {
            "buffer" : 0,
            "byteLength" : 15256,
            "byteOffset" : 232440
        }
    ],
    "buffers" : [
        {
            "byteLength" : 247696,
            "uri" : "data:application/octet-stream;base64,"
        }
    ]
}
